<svg xmlns="http://www.w3.org/2000/svg" viewBox="0 0 512 512">
  <defs>
    <linearGradient id="grad1" x1="0%" y1="0%" x2="100%" y2="100%">
      <stop offset="0%" style="stop-color:#3EA66D;stop-opacity:1" />
      <stop offset="100%" style="stop-color:#143C25;stop-opacity:1" />
    </linearGradient>
    <filter id="glow" x="-20%" y="-20%" width="140%" height="140%">
      <feGaussianBlur stdDeviation="8" result="blur" />
      <feComposite in="SourceGraphic" in2="blur" operator="over" />
    </filter>
  </defs>
  
  <rect width="512" height="512" rx="110" fill="url(#grad1)" />
  
  <g fill="none" stroke="#FFFFFF" stroke-width="1.8" stroke-linecap="round" stroke-linejoin="round" transform="translate(68.8, 68.8) scale(15.6)">
    <path d="M3 13.5h4a4 4 0 0 1 4 4v4a3 3 0 0 0-3-3H3z"/>
    <path d="M21 13.5h-4a4 4 0 0 0-4 4v4a3 3 0 0 1 3-3h4z"/>
    <path d="M12 11.5 V3"/>
    <path d="M8.5 11.5 V6.5"/>
    <path d="M15.5 11.5 V6.5"/>
    <path d="M5 11.5 V9"/>
    <path d="M19 11.5 V9"/>
  </g>
</svg>
